# xmcd
#
# Track frame offsets:
#	150
#	16418
#	34755
#	49812
#	67911
#	82142
#	97988
#	117117
#	131232
#	148816
#	164974
#	181588
#	195650
#	209739
#	224333
#	241172
#	257826
#	276017
#	290791
#	308679
#
# Disc length: 4308 seconds
#
# Revision: 0
# Processed by: cddbd v1.5.2PL0 Copyright (c) Steve Scherf et al.
# Submitted via: audiograbber 1.83.01
#
DISCID=3610d214
DTITLE=Various Artist - Promo Only Country Radio 2013 - 01
DYEAR=2013
DGENRE=Country
TTITLE0=Jana Kramer - Whiskey
TTITLE1=Aaron Lewis - Forever
TTITLE2=Love and Theft - Runnin' Out Of Air
TTITLE3=Bill Gentry - Hell And Half Of Georgia
TTITLE4=The Band Perry - Better Dig Two
TTITLE5=Jerrod Niemann - Only God Could Love You More
TTITLE6=Brantley Gilbert - More Than Miles
TTITLE7=Dustin Lynch - She Cranks My Tractor
TTITLE8=Carrie Underwood - Blown Away
TTITLE9=Mark Cooke - Stay With Me Tonight
TTITLE10=Toby Keith - Hope on the Rocks
TTITLE11=The Henningsens - American Beautiful
TTITLE12=Jason Aldean - Take A Little Ride
TTITLE13=Hayden Panettiere - Telescope
TTITLE14=Kristy Lee Cook - Airborne Ranger Infantry
TTITLE15=George Strait - Give It All We Got Tonight!
TTITLE16=Kelly Clarkson and Vince Gill - Don't Rush
TTITLE17=Thompson Square - If I Didn't Have You
TTITLE18=Taylor Swift - Begin Again
TTITLE19=Jason Aldean - The Only Way I Know (With Luke Bryan and Eric Church)
EXTD=
EXTT0=
EXTT1=
EXTT2=
EXTT3=
EXTT4=
EXTT5=
EXTT6=
EXTT7=
EXTT8=
EXTT9=
EXTT10=
EXTT11=
EXTT12=
EXTT13=
EXTT14=
EXTT15=
EXTT16=
EXTT17=
EXTT18=
EXTT19=
PLAYORDER=
